<svg width="168" height="88" viewBox="0 0 168 88" fill="none" xmlns="http://www.w3.org/2000/svg">
<g filter="url(#filter0_d_1_3)">
<path d="M35.68 67.656C34.4 67.656 32.864 67.4427 31.072 67.016C29.28 66.6747 27.6587 66.0347 26.208 65.096C24.8427 64.2427 24.16 63.0053 24.16 61.384C24.16 58.9947 24.8427 56.0507 26.208 52.552C27.5733 48.968 29.3227 45.1707 31.456 41.16C33.5893 37.1493 35.8507 33.1387 38.24 29.128C40.7147 25.1173 43.0613 21.448 45.28 18.12C47.4987 14.7067 49.3333 11.9333 50.784 9.8C49.8453 9.8 48.096 10.0133 45.536 10.44C43.0613 10.8667 40.2453 11.4213 37.088 12.104C33.9307 12.7867 30.816 13.5973 27.744 14.536C24.7573 15.3893 22.24 16.328 20.192 17.352C18.144 18.2907 17.0347 19.2293 16.864 20.168L17.888 20.552C18.4853 20.2107 19.0827 20.04 19.68 20.04C20.3627 19.9547 21.0453 19.912 21.728 19.912L23.52 19.272L23.392 19.528C21.5147 20.7227 19.808 22.088 18.272 23.624C16.736 25.0747 15.2 26.6107 13.664 28.232L12.896 28.488L12.384 29.384L10.976 29.64L10.848 29.896L10.976 32.2L6.624 30.024C6.28267 29.0853 5.77067 28.232 5.088 27.464C4.49067 26.696 4.192 25.8 4.192 24.776C7.43467 20.7653 11.3173 17.736 15.84 15.688C20.3627 13.5547 24.8427 11.4213 29.28 9.288L29.152 9.416C29.3227 9.50133 29.5787 9.58666 29.92 9.672C30.2613 9.75733 30.5173 9.8 30.688 9.8C31.3707 9.8 32.0533 9.672 32.736 9.416C33.4187 9.07467 34.1013 8.81867 34.784 8.648V8.904C35.552 8.73333 36.32 8.56267 37.088 8.392C37.856 8.136 38.6667 7.83733 39.52 7.496V7.752L41.44 7.112V6.984L42.08 7.112L41.952 6.984C41.952 6.81333 41.9947 6.77066 42.08 6.856C42.2507 6.94133 42.336 7.02666 42.336 7.112L43.104 6.984L43.36 6.344L44.128 6.6L43.872 6.344L44.128 6.472L44.256 6.6H46.176L47.072 6.216L47.328 5.832L50.784 5.96L50.912 5.832L52.064 5.32C52.6613 5.32 53.216 5.32 53.728 5.32C54.3253 5.23466 54.9227 5.192 55.52 5.192C56.1173 4.50933 56.6293 3.69866 57.056 2.76C57.568 1.82133 58.3787 1.352 59.488 1.352C60.6827 1.352 61.7493 1.608 62.688 2.12C63.6267 2.632 64.6507 2.888 65.76 2.888C65.9307 3.4 66.6133 3.912 67.808 4.424C69.0027 4.85066 70.3253 5.23466 71.776 5.576C73.312 5.832 74.7627 6.04533 76.128 6.216C77.4933 6.30133 78.4747 6.344 79.072 6.344L84.576 8.008L84.96 7.88C85.728 7.88 86.7947 8.392 88.16 9.416C89.5253 10.44 90.8907 11.5493 92.256 12.744C93.6213 13.9387 94.56 14.8347 95.072 15.432C95.2427 16.0293 95.4133 16.6693 95.584 17.352C95.7547 18.0347 96.0107 18.6747 96.352 19.272C96.0107 22.5147 95.4133 24.9467 94.56 26.568C93.7067 28.104 92.4693 29.2133 90.848 29.896C89.2267 30.5787 87.008 31.304 84.192 32.072L82.528 31.944V32.584H82.272L81.76 32.072L76.64 33.608V32.84C75.0187 33.9493 73.7813 34.504 72.928 34.504C72.16 34.504 70.9227 34.5893 69.216 34.76L69.088 34.504C68.7467 34.8453 68.4053 35.0587 68.064 35.144C67.7227 35.144 67.3387 35.144 66.912 35.144C65.5467 35.144 64.3093 35.4853 63.2 36.168C62.0907 36.7653 60.8533 37.0213 59.488 36.936V37.576L58.848 37.448L58.336 36.936L58.08 37.448V37.576L57.824 37.448C57.6533 37.3627 57.4827 37.32 57.312 37.32C57.1413 37.2347 56.9707 37.192 56.8 37.192C56.3733 37.192 55.9467 37.2773 55.52 37.448C55.0933 37.5333 54.6667 37.576 54.24 37.576L54.368 36.808C54.2827 36.8933 53.3867 36.9787 51.68 37.064C49.9733 37.1493 48.1813 37.32 46.304 37.576C44.512 37.832 43.232 38.3013 42.464 38.984C42.3787 39.6667 42.1653 40.6053 41.824 41.8C41.4827 42.9093 40.8427 43.464 39.904 43.464V42.568L39.136 41.544H39.008C38.6667 41.544 38.368 41.7147 38.112 42.056C37.9413 42.312 37.9413 42.6533 38.112 43.08C37.856 43.4213 37.6 43.7627 37.344 44.104C37.088 44.36 36.96 44.7013 36.96 45.128L37.6 46.28L38.624 46.024L39.136 46.28C39.136 46.536 38.624 47.2187 37.6 48.328C36.576 49.4373 35.5093 50.8027 34.4 52.424C33.2907 53.96 32.608 55.5813 32.352 57.288L30.816 58.184L31.84 58.824L32.352 59.848L31.456 61.512L31.968 62.024C32.0533 62.4507 32.1387 62.8773 32.224 63.304C32.3947 63.816 32.608 64.2427 32.864 64.584L33.504 64.84C34.3573 64.84 35.3387 64.5413 36.448 63.944C37.6427 63.3467 38.7947 62.6213 39.904 61.768C41.0987 61 42.0373 60.4027 42.72 59.976L43.232 60.616C43.1467 60.9573 42.6773 61.5973 41.824 62.536C41.056 63.56 40.2027 64.5413 39.264 65.48C38.3253 66.4187 37.6853 67.144 37.344 67.656H35.68ZM44.768 35.144C50.3147 33.9493 55.8187 32.84 61.28 31.816C66.7413 30.7067 72.1173 29.1707 77.408 27.208L77.536 27.08C79.072 26.4827 80.6933 25.8 82.4 25.032C84.1067 24.1787 85.6 23.112 86.88 21.832C88.16 20.552 88.8 19.016 88.8 17.224C88.4587 16.456 87.9893 15.6453 87.392 14.792C86.7947 13.8533 85.984 13.3413 84.96 13.256L85.216 13.384C83.5093 12.7867 81.8453 12.0187 80.224 11.08C78.688 10.1413 76.9813 9.58666 75.104 9.416V9.544H74.72C74.208 9.288 73.7387 9.16 73.312 9.16C72.9707 9.16 72.6293 9.20266 72.288 9.288C71.9467 9.37333 71.5627 9.416 71.136 9.416L70.112 8.648H68.576C67.6373 8.648 66.6987 8.648 65.76 8.648C64.8213 8.56266 63.8827 8.47733 62.944 8.392C61.7493 9.50133 60.2987 10.952 58.592 12.744C56.9707 14.536 55.4347 16.3707 53.984 18.248C52.6187 20.1253 51.5947 21.832 50.912 23.368V24.648C49.4613 25.2453 48.3093 26.568 47.456 28.616C46.688 30.5787 45.8347 32.2 44.896 33.48L44.64 34.376L45.024 34.888L44.768 35.144ZM24.8 19.272L25.056 18.376L25.44 18.632L25.696 19.016L25.44 19.272H24.8ZM44.128 59.464L43.232 59.208C43.232 58.7813 43.488 58.3973 44 58.056C44.5973 57.6293 45.0667 57.3733 45.408 57.288L45.792 57.544L44.128 59.464ZM105.734 65.608L104.454 64.712L103.302 64.584L102.15 64.072L100.486 64.584C99.8033 63.1333 98.694 62.4933 97.158 62.664C94.5127 61.2987 91.9953 59.5493 89.606 57.416C87.2167 55.1973 85.254 52.7227 83.718 49.992C82.182 47.176 81.414 44.1893 81.414 41.032C81.414 40.3493 81.542 39.2827 81.798 37.832C82.054 36.296 82.4807 34.888 83.078 33.608C83.6753 32.328 84.4007 31.688 85.254 31.688C85.9367 30.92 86.8753 29.768 88.07 28.232C89.35 26.6107 90.6727 25.16 92.038 23.88C93.4033 22.6 94.598 21.96 95.622 21.96C96.4753 21.96 96.8593 21.6613 96.774 21.064C96.774 20.3813 96.902 19.7413 97.158 19.144C97.414 18.5467 98.31 18.248 99.846 18.248C100.529 18.248 101.083 17.992 101.51 17.48C102.022 16.968 102.321 16.4133 102.406 15.816L103.43 15.176L103.942 15.56C104.795 15.56 105.521 15.304 106.118 14.792C106.801 14.1947 107.313 13.5547 107.654 12.872L108.934 13.384C111.067 12.7867 112.987 11.8053 114.694 10.44C116.486 9.07467 118.449 8.22133 120.582 7.88L121.606 6.984C123.142 6.55733 124.678 6.17333 126.214 5.832C127.75 5.49066 129.329 5.40533 130.95 5.576C131.889 5.23466 132.785 4.89333 133.638 4.552C134.577 4.21066 135.558 4.04 136.582 4.04C138.971 4.04 141.361 4.25333 143.75 4.68C146.225 5.02133 148.657 5.192 151.046 5.192C151.643 5.192 151.942 4.936 151.942 4.424C151.942 4.08266 151.899 3.784 151.814 3.528C151.729 3.18666 151.643 2.93067 151.558 2.76L152.07 1.352L151.814 0.839996C152.582 1.096 153.777 1.43733 155.398 1.864C157.105 2.29066 158.726 2.76 160.262 3.272C161.798 3.784 162.737 4.38133 163.078 5.064L162.566 6.856L160.262 7.624L159.494 7.368C158.641 7.70933 158.214 8.392 158.214 9.416C158.299 10.44 158.086 11.0373 157.574 11.208L156.55 10.952H156.422L157.318 12.616L157.19 13.128L157.446 13.64L157.19 13.896L156.294 13.384C155.953 14.0667 155.697 15.0053 155.526 16.2C155.355 17.3947 154.801 18.0347 153.862 18.12C152.923 19.0587 151.899 20.168 150.79 21.448C149.766 22.6427 148.529 23.3253 147.078 23.496V23.368L147.59 20.808L147.078 20.168C147.761 18.4613 148.401 16.7547 148.998 15.048C149.681 13.256 150.193 11.464 150.534 9.672C148.827 9.416 147.462 8.904 146.438 8.136C145.414 7.28267 143.921 6.856 141.958 6.856C138.203 6.856 134.065 7.66667 129.542 9.288C125.019 10.9093 120.497 13.128 115.974 15.944C111.537 18.6747 107.441 21.8747 103.686 25.544C99.9313 29.128 96.902 32.968 94.598 37.064C92.3793 41.0747 91.27 45.0853 91.27 49.096C91.27 52.68 92.4647 55.112 94.854 56.392C97.2433 57.672 100.017 58.312 103.174 58.312C106.587 58.312 109.958 57.928 113.286 57.16C116.614 56.3067 119.857 55.2827 123.014 54.088C123.867 54.088 124.678 54.0027 125.446 53.832C126.214 53.576 126.897 53.2773 127.494 52.936V52.68L129.926 52.168L130.566 52.552L130.95 52.168V51.656L132.742 51.272L134.406 49.992L135.302 51.656L134.534 51.272L133.894 52.552L134.022 52.808C131.889 54.856 129.201 56.8187 125.958 58.696C122.801 60.5733 119.473 62.0667 115.974 63.176C112.561 64.2853 109.318 64.7973 106.246 64.712L106.374 65.096L105.734 65.608ZM145.67 25.672L146.054 24.008L146.694 24.52L145.67 25.672ZM121.862 79.304C121.265 78.8773 120.881 78.2373 120.71 77.384C120.539 76.616 120.241 75.9333 119.814 75.336C120.155 74.4827 120.326 73.6293 120.326 72.776C120.326 71.9227 120.369 71.0693 120.454 70.216L121.734 70.984L121.862 70.856L122.758 69.576L123.398 69.192L123.91 68.424C125.617 67.2293 127.238 65.992 128.774 64.712C130.31 63.5173 131.803 62.1947 133.254 60.744H133.382C133.041 61.6827 132.571 62.664 131.974 63.688C131.462 64.712 130.865 65.5653 130.182 66.248L129.798 67.4L130.182 67.784C130.694 67.784 131.675 66.9307 133.126 65.224C134.577 63.5173 136.113 61.512 137.734 59.208C139.355 56.8187 140.849 54.6 142.214 52.552C143.579 50.504 144.475 49.1387 144.902 48.456C146.097 46.4933 147.035 44.4453 147.718 42.312C148.486 40.1787 149.297 38.088 150.15 36.04C148.273 35.8693 146.395 35.528 144.518 35.016C142.726 34.504 140.891 34.248 139.014 34.248C138.502 34.248 137.478 34.376 135.942 34.632C134.406 34.888 132.699 35.2293 130.822 35.656C129.03 35.9973 127.366 36.3813 125.83 36.808C124.379 37.1493 123.441 37.448 123.014 37.704C122.417 38.6427 121.691 39.1547 120.838 39.24C120.07 39.3253 119.217 39.496 118.278 39.752C118.022 39.8373 117.425 40.3493 116.486 41.288C115.547 42.1413 114.481 43.1653 113.286 44.36C112.177 45.5547 111.11 46.664 110.086 47.688C109.147 48.6267 108.507 49.2667 108.166 49.608L108.294 49.992L109.062 50.504L111.494 50.888L110.47 51.912C109.958 51.912 109.446 51.8267 108.934 51.656C108.422 51.4853 107.953 51.3147 107.526 51.144C106.758 50.2053 106.246 49.224 105.99 48.2C105.734 47.176 105.606 46.1093 105.606 45C105.606 44.5733 105.606 44.1893 105.606 43.848C105.606 43.4213 105.649 42.9947 105.734 42.568L105.35 42.696L104.966 42.568L104.71 41.8C105.051 40.3493 105.905 39.1547 107.27 38.216C108.635 37.2773 110.129 36.5093 111.75 35.912C113.457 35.2293 114.865 34.7173 115.974 34.376L116.87 34.76L117.126 33.992C120.881 33.224 124.721 32.7547 128.646 32.584C132.571 32.328 136.454 32.2 140.294 32.2C144.134 32.2 147.718 32.6267 151.046 33.48C151.643 31.8587 152.113 30.5787 152.454 29.64C152.881 28.616 154.161 28.104 156.294 28.104C156.721 28.104 157.19 28.1893 157.702 28.36C158.214 28.4453 158.513 28.7013 158.598 29.128L156.678 32.456L156.294 34.12C157.574 34.4613 158.854 34.888 160.134 35.4C161.414 35.912 162.523 36.6373 163.462 37.576V37.96L163.206 38.088C162.097 37.4053 160.902 36.8933 159.622 36.552C158.342 36.2107 157.019 35.9973 155.654 35.912C155.483 36.2533 155.355 36.68 155.27 37.192C155.185 37.704 154.929 38.088 154.502 38.344L153.734 38.088C151.857 41.3307 149.723 44.9573 147.334 48.968C144.945 52.8933 142.385 56.8187 139.654 60.744C136.923 64.6693 134.065 68.2533 131.078 71.496C128.091 74.824 125.019 77.4267 121.862 79.304ZM141.574 47.56L141.062 47.048V46.792C141.745 46.3653 142.513 46.1093 143.366 46.024C142.854 46.6213 142.257 47.1333 141.574 47.56ZM136.198 51.4L135.558 50.888C135.558 50.376 135.686 49.9493 135.942 49.608C136.283 49.2667 136.71 49.1813 137.222 49.352L136.71 49.096C137.819 48.9253 138.673 48.5413 139.27 47.944H140.55L138.246 50.504V50.632L137.734 50.504L137.094 51.272L136.198 51.4ZM134.022 59.464L134.406 58.696L134.662 58.824L134.79 59.336L134.662 59.464H134.022Z" fill="white"/>
</g>
<defs>
<filter id="filter0_d_1_3" x="0.191986" y="0.839996" width="167.27" height="86.464" filterUnits="userSpaceOnUse" color-interpolation-filters="sRGB">
<feFlood flood-opacity="0" result="BackgroundImageFix"/>
<feColorMatrix in="SourceAlpha" type="matrix" values="0 0 0 0 0 0 0 0 0 0 0 0 0 0 0 0 0 0 127 0" result="hardAlpha"/>
<feOffset dy="4"/>
<feGaussianBlur stdDeviation="2"/>
<feComposite in2="hardAlpha" operator="out"/>
<feColorMatrix type="matrix" values="0 0 0 0 0 0 0 0 0 0 0 0 0 0 0 0 0 0 0.25 0"/>
<feBlend mode="normal" in2="BackgroundImageFix" result="effect1_dropShadow_1_3"/>
<feBlend mode="normal" in="SourceGraphic" in2="effect1_dropShadow_1_3" result="shape"/>
</filter>
</defs>
</svg>
